<svg width="32" height="32" viewBox="0 0 32 32" fill="none" xmlns="http://www.w3.org/2000/svg">
<g clip-path="url(#clip0_0_4)">
<path d="M16.7996 3.20117C18.5669 3.20117 19.9997 4.63415 19.9998 6.40137C19.9997 8.16859 18.5669 9.60156 16.7996 9.60156C16.7866 9.60156 16.7735 9.60074 16.7606 9.60059C15.0664 9.6212 13.689 10.9578 13.6043 12.6357L13.5965 12.9639C13.5778 13.3343 13.4954 13.6879 13.3611 14.0146C13.5147 13.6405 13.6004 13.2312 13.6004 12.8018C13.6005 14.5564 15.0127 15.9807 16.7625 16.001C16.7749 16.0008 16.7873 16 16.7996 16C18.5669 16 19.9997 17.433 19.9998 19.2002C19.9997 20.9121 18.6553 22.3106 16.9647 22.3965L16.6346 22.4043C14.9444 22.4906 13.6005 23.889 13.6004 25.6006C13.6003 27.3678 12.1674 28.8007 10.4002 28.8008C8.63298 28.8008 7.20012 27.3678 7.20001 25.6006C7.20022 23.8335 8.63305 22.4014 10.4002 22.4014C10.4787 22.4014 10.5565 22.4038 10.6336 22.4092C10.6106 22.4075 10.5875 22.4055 10.5643 22.4043C10.51 22.4016 10.4552 22.4004 10.4002 22.4004C12.167 22.4002 13.5998 20.9678 13.6004 19.2012L13.5965 19.0361C13.51 17.3461 12.1116 16.0021 10.4002 16.002C11.7256 16.0018 12.8626 15.1954 13.3484 14.0469C12.8622 15.1946 11.725 15.9999 10.4002 16C8.63298 16 7.20012 14.567 7.20001 12.7998C7.20012 11.0326 8.63298 9.59964 10.4002 9.59961C10.4139 9.59961 10.4276 9.59944 10.4412 9.59961C12.1894 9.57748 13.6003 8.15479 13.6004 6.40137L13.6043 6.2373C13.6898 4.54649 15.0876 3.20143 16.7996 3.20117ZM10.8875 22.4375L10.7274 22.417C10.7053 22.4147 10.6831 22.413 10.6609 22.4111C10.7373 22.4171 10.8128 22.4261 10.8875 22.4375ZM23.2 9.59961C24.9673 9.59961 26.4001 11.0326 26.4002 12.7998C26.4002 14.5671 24.9673 16 23.2 16C21.4327 16 19.9998 14.5671 19.9998 12.7998C19.9999 11.0326 21.4328 9.59964 23.2 9.59961Z" fill="#FAFAFA"/>
</g>
<defs>
<clipPath id="clip0_0_4">
<rect width="32" height="32" fill="white"/>
</clipPath>
</defs>
</svg>
